<?xml version="1.0" encoding="UTF-8" standalone="no"?>
<!-- Created with Inkscape (http://www.inkscape.org/) -->

<svg
   xmlns:dc="http://purl.org/dc/elements/1.1/"
   xmlns:cc="http://creativecommons.org/ns#"
   xmlns:rdf="http://www.w3.org/1999/02/22-rdf-syntax-ns#"
   xmlns:svg="http://www.w3.org/2000/svg"
   xmlns="http://www.w3.org/2000/svg"
   xmlns:sodipodi="http://sodipodi.sourceforge.net/DTD/sodipodi-0.dtd"
   xmlns:inkscape="http://www.inkscape.org/namespaces/inkscape"
   width="280"
   height="142"
   id="svg3342"
   version="1.1"
   inkscape:version="0.48.4 r9939"
   sodipodi:docname="redcherry.svg">
  <defs
     id="defs3344" />
  <sodipodi:namedview
     id="base"
     pagecolor="#ffffff"
     bordercolor="#666666"
     borderopacity="1.0"
     inkscape:pageopacity="0.0"
     inkscape:pageshadow="2"
     inkscape:zoom="3.57"
     inkscape:cx="152.25806"
     inkscape:cy="107.98065"
     inkscape:document-units="px"
     inkscape:current-layer="layer1"
     showgrid="false"
     inkscape:window-width="1600"
     inkscape:window-height="845"
     inkscape:window-x="-2"
     inkscape:window-y="-3"
     inkscape:window-maximized="1" />
  <metadata
     id="metadata3347">
    <rdf:RDF>
      <cc:Work
         rdf:about="">
        <dc:format>image/svg+xml</dc:format>
        <dc:type
           rdf:resource="http://purl.org/dc/dcmitype/StillImage" />
        <dc:title></dc:title>
      </cc:Work>
    </rdf:RDF>
  </metadata>
  <g
     inkscape:label="Layer 1"
     inkscape:groupmode="layer"
     id="layer1"
     transform="translate(0,-910.36218)">
    <g
       id="g3375"
       transform="translate(-102.0164,654.6026)">
      <g
         id="g20"
         transform="matrix(1.25,0,0,-1.25,367.43521,381.06744)">
        <path
           d="m 0,0 c -0.026,-1.866 -0.102,-3.579 -0.229,-5.139 -0.129,-1.559 -0.345,-2.877 -0.652,-3.951 -0.307,-1.073 -0.713,-1.682 -1.227,-1.764 -1.271,-0.204 -2.275,0.141 -2.99,0.883 -0.716,0.741 -1.188,1.763 -1.419,3.067 -0.23,1.304 -0.268,2.788 -0.114,4.449 0.153,1.663 0.445,3.313 0.88,4.948 0.434,1.637 0.959,3.147 1.573,4.528 0.614,1.38 1.955,3.375 2.874,4.41 0.313,0.352 0.653,0.677 0.959,1.035 0,-0.46 0.039,-1.329 0.116,-2.607 0.075,-1.28 0.142,-2.775 0.19,-4.488 C 0.013,3.657 0.026,1.868 0,0 m -58.714,26.872 c 0.485,1.507 1.086,2.876 1.803,4.104 0.716,1.227 1.509,2.172 2.378,2.837 0.87,0.665 2.513,0.87 2.915,0.154 0.18,-0.321 0.166,-0.867 0.077,-1.612 -0.135,-1.117 -0.371,-2.198 -0.959,-3.22 -0.588,-1.024 -1.278,-1.957 -2.071,-2.801 -0.793,-0.843 -1.637,-1.586 -2.533,-2.223 -0.894,-0.641 -1.673,-1.14 -2.338,-1.496 0,1.328 0.243,2.747 0.728,4.257 M 10.621,21.058 C 9.188,20.903 7.694,20.521 6.134,19.906 4.576,19.294 3.107,18.398 1.726,17.221 c -0.052,1.432 -0.052,2.865 0,4.298 0.051,1.43 0.14,2.787 0.268,4.064 0.128,1.279 0.243,2.454 0.346,3.53 0.103,1.074 0.153,1.994 0.153,2.761 0,0.102 -0.153,0.23 -0.46,0.383 -0.307,0.155 -0.64,0.281 -0.997,0.385 C 0.677,32.743 0.333,32.82 0,32.871 c -0.333,0.051 -0.498,0.051 -0.498,0 -0.92,-5.217 -2.135,-8.989 -3.641,-11.313 -1.509,-2.329 -2.851,-3.212 -4.027,-2.649 -0.665,0.308 -1.189,0.971 -1.573,1.994 -0.383,1.024 -0.69,2.212 -0.92,3.568 -0.232,1.354 -0.397,2.787 -0.499,4.296 -0.103,1.507 -0.179,2.902 -0.23,4.181 -0.051,1.279 -0.103,2.327 -0.154,3.145 -0.05,0.817 -0.152,1.228 -0.306,1.228 -0.256,0.255 -0.64,0.421 -1.151,0.498 -0.512,0.076 -0.896,0.038 -1.15,-0.114 0.058,-0.76 0.109,-1.455 0.156,-2.119 -1.347,-0.015 -2.55,-0.137 -3.595,-0.375 -1.458,-0.334 -2.712,-0.857 -3.759,-1.572 -1.048,-0.717 -1.906,-1.574 -2.57,-2.57 -0.665,-0.997 -1.227,-2.085 -1.687,-3.261 -0.104,1.176 -0.18,2.121 -0.231,2.839 -0.051,0.714 -0.102,1.38 -0.153,1.995 -0.052,0.613 -0.127,1.264 -0.23,1.955 -0.103,0.69 -0.256,1.624 -0.459,2.8 -0.565,0.255 -1.114,0.498 -1.65,0.728 -0.538,0.231 -0.78,0.116 -0.73,-0.344 0.072,-0.711 0.147,-1.448 0.224,-2.201 -1.639,0.025 -3.083,-0.091 -4.307,-0.369 -1.458,-0.334 -2.711,-0.857 -3.758,-1.572 -1.049,-0.717 -1.905,-1.574 -2.57,-2.57 -0.666,-0.997 -1.227,-2.085 -1.688,-3.261 -0.102,1.176 -0.18,2.121 -0.229,2.839 -0.053,0.714 -0.104,1.38 -0.156,1.995 -0.05,0.613 -0.126,1.264 -0.229,1.955 -0.103,0.69 -0.256,1.624 -0.46,2.8 -0.563,0.255 -1.113,0.498 -1.649,0.728 -0.537,0.231 -0.78,0.116 -0.729,-0.344 0.307,-3.019 0.652,-6.432 1.035,-10.241 0.057,-0.568 0.107,-1.157 0.154,-1.756 -0.544,-0.668 -1.066,-1.255 -1.563,-1.752 -0.64,-0.639 -1.496,-1.417 -2.57,-2.339 -0.664,-0.614 -1.534,-1.329 -2.608,-2.148 -1.074,-0.818 -2.174,-1.471 -3.298,-1.956 -1.126,-0.486 -2.201,-0.651 -3.223,-0.499 -1.023,0.153 -1.79,0.895 -2.3,2.225 2.197,1.584 4.103,3.248 5.714,4.987 1.611,1.739 2.902,3.911 3.874,6.521 0.664,2.351 0.548,3.89 -0.191,4.756 -1.523,1.777 -5.241,1.302 -6.483,0.613 -1.021,-0.567 -1.917,-1.343 -2.685,-2.341 -0.767,-0.997 -1.484,-2.212 -2.148,-3.643 -0.972,-2.762 -1.484,-5.011 -1.534,-6.75 -0.007,-0.212 -0.004,-0.405 -0.005,-0.606 -0.905,0.912 -1.632,1.947 -2.166,3.116 -0.564,1.226 -1.011,2.517 -1.342,3.873 -0.334,1.354 -0.665,2.582 -0.998,3.682 -0.332,1.099 -0.767,1.968 -1.305,2.609 -0.537,0.638 -1.316,0.855 -2.338,0.652 -0.871,-0.103 -1.829,-0.973 -2.878,-2.609 -1.049,-1.637 -1.854,-3.708 -2.416,-6.214 l 0,2.725 0,4.985 0,6.482 c 0,2.352 -0.013,4.73 -0.037,7.135 -0.027,2.402 -0.039,4.741 -0.039,7.017 0,2.276 -0.013,4.309 -0.038,6.1 -0.028,1.79 -0.066,3.261 -0.115,4.41 -0.052,1.151 -0.104,1.803 -0.154,1.956 -0.716,0.154 -1.381,0.09 -1.996,-0.19 -0.611,-0.282 -0.919,-0.475 -0.919,-0.576 0.203,-3.121 0.357,-6.432 0.46,-9.935 0.102,-3.502 0.193,-7.031 0.268,-10.585 0.077,-3.556 0.127,-7.071 0.154,-10.547 0.009,-1.279 0.016,-2.517 0.023,-3.734 -0.151,-0.104 -0.302,-0.214 -0.457,-0.333 -0.334,-0.256 -0.603,-0.513 -0.807,-0.767 -0.767,-1.637 -1.637,-3.222 -2.608,-4.756 -0.971,-1.535 -2.045,-2.953 -3.221,-4.258 -1.177,-1.303 -2.444,-2.468 -3.798,-3.49 -1.355,-1.023 -3.887,-2.346 -5.676,-2.724 -0.748,-0.156 -1.573,-0.229 -2.493,-0.152 -0.921,0.075 -1.869,0.357 -2.838,0.843 -0.973,0.485 -1.817,1.342 -2.532,2.57 -0.717,1.227 -1.201,2.922 -1.572,5.063 -0.604,3.485 0,9.103 0.23,10.433 0.23,1.33 0.549,2.902 0.958,4.718 0.409,1.815 0.883,3.655 1.42,5.523 0.537,1.866 1.086,3.388 1.649,4.564 1.687,3.222 3.515,5.766 5.484,7.632 1.968,1.867 3.848,3.286 5.639,4.258 1.79,0.97 3.336,1.611 4.641,1.918 1.304,0.307 2.159,0.536 2.571,0.691 0.306,0.306 0.306,0.587 0,0.844 -0.307,0.254 -0.73,0.485 -1.267,0.69 -0.537,0.203 -1.087,0.357 -1.649,0.46 -0.563,0.101 -0.946,0.153 -1.151,0.153 -2.66,-0.666 -5.217,-1.917 -7.67,-3.758 -2.456,-1.841 -4.656,-4.181 -6.598,-7.021 -1.944,-2.837 -3.556,-6.096 -4.834,-9.779 -1.277,-3.682 -2.016,-7.724 -2.512,-12.052 -0.259,-2.266 -0.313,-4.507 -0.134,-6.782 0.179,-2.275 0.337,-4.357 0.806,-6.173 0.914,-3.541 2.647,-5.844 4.565,-7.097 1.917,-1.253 4.005,-1.814 6.174,-1.265 1.957,0.495 3.234,1.253 5.102,2.377 1.866,1.124 3.707,2.557 5.524,4.297 1.814,1.737 3.502,3.757 5.062,6.06 0.75,1.106 1.414,2.275 2.004,3.498 0.002,-0.757 0.002,-1.503 0.002,-2.234 l 0,-8.284 0,-6.022 c 0.359,0 0.87,-0.115 1.534,-0.345 0.665,-0.231 1.178,-0.345 1.536,-0.345 -0.103,0.205 -0.167,0.729 -0.192,1.572 -0.026,0.845 -0.026,1.79 0,2.839 0.025,1.048 0.089,2.11 0.192,3.182 0.102,1.076 0.461,2.84 0.614,3.453 0.154,0.613 0.357,1.368 0.613,2.264 0.256,0.894 0.548,1.841 0.882,2.838 0.332,0.997 0.691,1.88 1.074,2.647 0.383,0.767 0.755,1.328 1.113,1.688 0.358,0.357 0.69,0.33 0.996,-0.078 0.103,-0.152 0.282,-0.69 0.538,-1.61 0.255,-0.921 0.587,-1.996 0.996,-3.223 0.41,-1.227 0.923,-2.481 1.535,-3.757 0.614,-1.281 1.33,-2.329 2.148,-3.146 0.743,-0.743 1.586,-1.177 2.518,-1.328 0.014,-0.06 0.023,-0.128 0.038,-0.185 0.05,-0.257 0.152,-0.562 0.306,-0.919 0.153,-0.36 0.395,-0.756 0.729,-1.19 0.332,-0.435 0.805,-0.857 1.419,-1.266 0.613,-0.41 3.161,-1.524 5.715,-1.151 0.957,0.14 1.813,0.563 2.608,1.075 0.792,0.51 1.525,1.135 2.263,1.802 0.97,0.878 3.452,3.49 3.912,3.952 0.46,0.458 0.83,0.854 1.112,1.188 0.282,0.332 0.499,0.639 0.652,0.92 0.038,0.067 0.074,0.145 0.113,0.219 0.168,-2.984 0.219,-6.319 0.146,-10.021 0,-0.256 0.153,-0.435 0.462,-0.537 0.306,-0.102 0.638,-0.128 0.995,-0.077 0.358,0.052 0.678,0.141 0.96,0.269 0.28,0.126 0.395,0.318 0.346,0.575 -0.104,0.51 -0.143,1.213 -0.115,2.109 0.025,0.895 0.049,1.816 0.076,2.761 0.026,0.947 0.077,1.843 0.154,2.686 0.077,0.844 0.139,1.495 0.19,1.956 0.308,0.92 0.704,1.929 1.189,3.031 0.487,1.097 1.125,2.135 1.919,3.107 0.792,0.969 1.738,1.827 2.839,2.57 1.098,0.738 2.389,1.238 3.873,1.494 0.693,0.104 1.21,0.237 1.563,0.402 0.212,-2.087 0.438,-4.331 0.679,-6.73 0.384,-3.811 0.524,-8.35 0.422,-13.616 0,-0.256 0.153,-0.435 0.461,-0.537 0.306,-0.102 0.638,-0.128 0.997,-0.077 0.357,0.052 0.678,0.141 0.957,0.269 0.282,0.126 0.397,0.318 0.347,0.575 -0.104,0.51 -0.142,1.213 -0.115,2.109 0.025,0.895 0.05,1.816 0.077,2.761 0.024,0.947 0.076,1.843 0.153,2.686 0.076,0.844 0.14,1.495 0.192,1.956 0.306,0.92 0.702,1.929 1.19,3.031 0.485,1.097 1.122,2.135 1.917,3.107 0.792,0.969 1.738,1.827 2.838,2.57 1.099,0.738 2.39,1.238 3.874,1.494 0.311,0.047 0.582,0.1 0.825,0.159 0.03,-0.464 0.058,-0.906 0.081,-1.309 0.078,-1.33 0.166,-2.608 0.269,-3.836 0.101,-1.228 0.23,-2.531 0.384,-3.912 0.153,-1.382 0.357,-3.12 0.614,-5.218 0.255,-1.789 0.933,-3.118 2.032,-3.987 1.099,-0.87 2.443,-0.948 4.028,-0.231 1.43,0.87 2.631,2.071 3.603,3.606 0.97,1.534 1.712,2.965 2.224,4.296 0,-2.66 0.105,-7.697 0.105,-7.697 0,0 -2.598,-2.288 -3.593,-3.696 C -5.137,10.638 -5.98,9.066 -6.669,7.327 -7.36,5.588 -7.911,3.771 -8.319,1.879 c -0.41,-1.891 -0.614,-3.731 -0.614,-5.523 0,-1.79 0.204,-3.438 0.614,-4.947 0.408,-1.508 1.099,-2.749 2.07,-3.721 0.307,-0.306 0.702,-0.548 1.189,-0.73 0.486,-0.178 0.998,-0.291 1.535,-0.344 0.535,-0.049 1.072,-0.037 1.608,0.038 0.538,0.078 1.01,0.244 1.419,0.499 0.562,0.359 1.009,1.062 1.342,2.11 0.332,1.048 0.588,2.314 0.768,3.796 0.177,1.485 0.279,3.146 0.306,4.987 0.024,1.841 0.039,3.709 0.039,5.6 0,1.893 -0.026,3.785 -0.078,5.677 -0.051,1.892 -0.076,3.656 -0.076,5.293 1.328,1.176 2.722,2.25 4.178,3.221 1.458,0.971 3.157,1.739 5.1,2.302 0.255,0.203 0.371,0.345 0.347,0.422 -0.028,0.077 -0.298,0.242 -0.807,0.499"
           style="fill:#2b2b2a;fill-opacity:1;fill-rule:nonzero;stroke:none"
           id="path22"
           inkscape:connector-curvature="0" />
      </g>
      <g
         id="g24"
         transform="matrix(1.25,0,0,-1.25,203.72671,332.08981)">
        <path
           d="m 0,0 c 0,0 -7.044,5.04 -12.612,-1.014 -6.839,-7.434 -6.869,-14.567 -2.132,-21.04 2.381,-3.259 7.589,-7.659 18.173,-5.544 2.821,0.565 8.252,3.283 10.315,9.676 1.306,4.055 -0.008,12.814 -3.123,15.657 C 7.506,0.579 5.524,0.089 3.584,-0.597 1.642,-1.286 0,0 0,0"
           style="fill:#d22529;fill-opacity:1;fill-rule:nonzero;stroke:none"
           id="path26"
           inkscape:connector-curvature="0" />
      </g>
      <g
         id="g28"
         transform="matrix(1.25,0,0,-1.25,239.75021,272.01832)">
        <path
           d="m 0,0 c 0,0 -7.607,15.838 -30.973,9.458 0,0 8.424,-19.206 30.973,-9.458"
           style="fill:#00984f;fill-opacity:1;fill-rule:nonzero;stroke:none"
           id="path30"
           inkscape:connector-curvature="0" />
      </g>
      <g
         id="g32"
         transform="matrix(1.25,0,0,-1.25,211.30296,333.98182)">
        <path
           d="m 0,0 c 0.684,0 1.8,-0.188 3.586,-1.819 2.608,-2.38 3.869,-10.587 2.723,-14.145 -1.872,-5.799 -6.852,-8.229 -9.225,-8.704 -1.745,-0.349 -3.417,-0.525 -4.971,-0.525 -6.39,0 -9.918,2.993 -11.753,5.506 -4.663,6.371 -3.999,12.655 2.03,19.21 1.534,1.667 3.343,2.514 5.378,2.514 2.795,0 5.148,-1.571 5.321,-1.691 0.27,-0.202 1.539,-1.075 3.257,-1.075 0.567,0 1.125,0.096 1.659,0.284 C -1.357,-0.22 -0.678,0 0,0 m -40.406,-11.739 c 0.486,1.507 1.086,2.876 1.803,4.104 0.716,1.227 1.508,2.172 2.377,2.837 0.87,0.666 2.514,0.869 2.916,0.154 0.18,-0.321 0.166,-0.868 0.077,-1.611 -0.136,-1.118 -0.371,-2.199 -0.959,-3.223 -0.589,-1.022 -1.279,-1.955 -2.072,-2.798 -0.792,-0.845 -1.636,-1.587 -2.53,-2.226 -0.896,-0.639 -1.676,-1.138 -2.341,-1.494 0,1.328 0.243,2.747 0.729,4.257 M -71.358,4.383 c -0.461,3.528 -0.795,6.723 -0.998,9.588 -0.205,2.864 -0.41,5.42 -0.613,7.671 2.301,-0.306 4.691,-0.768 7.173,-1.38 2.479,-0.614 4.78,-1.279 6.903,-1.994 2.121,-0.717 3.899,-1.485 5.331,-2.302 1.431,-0.819 2.714,-1.742 2.455,-3.069 -0.138,-0.705 -0.665,-1.496 -2.148,-2.34 -1.484,-0.844 -3.287,-1.662 -5.408,-2.453 -2.123,-0.794 -4.347,-1.536 -6.674,-2.225 -2.328,-0.692 -4.334,-1.19 -6.021,-1.496 m 82.113,43.872 c -9.792,10e-4 -14.961,6.718 -16.828,9.825 2.917,0.677 5.709,1.019 8.32,1.019 11.116,0 16.524,-6.065 18.41,-8.826 -3.494,-1.339 -6.818,-2.018 -9.901,-2.018 l -10e-4,0 z m 0.673,-10.38 c 7.491,6.918 15.297,9.225 15.373,9.247 l -0.794,2.777 c -0.084,-0.025 -0.642,-0.188 -1.551,-0.528 l -0.396,0.825 c -0.232,0.482 -5.848,11.791 -21.813,11.791 -3.389,0 -7.037,-0.527 -10.842,-1.565 l -1.614,-0.441 0.672,-1.533 c 0.234,-0.534 5.905,-13.08 20.292,-13.081 l 10e-4,0 c 2.414,0 4.944,0.369 7.561,1.095 C 15.674,44.958 12.614,42.886 9.569,40.09 2.543,33.638 -5.604,22.032 -5.62,2.949 c -0.956,0.592 -3.525,1.976 -6.612,1.976 -2.875,0 -5.4,-1.159 -7.504,-3.447 -4.425,-4.811 -6.329,-9.785 -5.7,-14.693 -0.427,-0.508 -0.841,-0.966 -1.238,-1.363 -0.64,-0.64 -1.496,-1.418 -2.57,-2.34 -0.665,-0.613 -1.535,-1.331 -2.608,-2.147 -1.074,-0.819 -2.175,-1.472 -3.298,-1.956 -1.126,-0.486 -2.2,-0.652 -3.223,-0.5 -1.023,0.154 -1.791,0.896 -2.301,2.226 2.198,1.584 4.104,3.247 5.715,4.985 1.611,1.738 2.901,3.913 3.874,6.521 0.664,2.351 0.548,3.89 -0.191,4.756 -1.524,1.779 -5.241,1.304 -6.483,0.615 -1.021,-0.569 -1.918,-1.344 -2.685,-2.341 -0.767,-0.997 -1.484,-2.213 -2.148,-3.644 -0.972,-2.761 -1.484,-5.012 -1.534,-6.75 -0.018,-0.584 -0.011,-1.115 0.006,-1.618 -0.427,0.12 -0.914,0.265 -1.463,0.441 -1.126,0.358 -5.759,2.358 -8.784,4.104 -1.161,0.672 -2.276,1.419 -3.376,2.187 -1.101,0.767 -2.263,1.622 -3.49,2.569 -1.228,0.946 -2.765,1.987 -4.372,3.414 -1.19,1.056 -2.047,2.071 -2.763,2.838 -0.717,0.767 -1.329,1.842 -1.84,3.222 1.432,0.308 3.184,0.729 5.255,1.265 2.071,0.539 4.142,1.163 6.213,1.88 2.072,0.716 3.963,1.496 5.677,2.34 1.713,0.844 2.895,1.755 3.721,2.569 1.007,0.993 1.649,2.046 1.726,3.376 0.076,1.33 -0.704,2.658 -2.341,3.989 -1.636,1.329 -4.283,2.596 -7.939,3.797 -3.657,1.201 -8.656,2.16 -14.998,2.877 -0.818,0.051 -1.878,0.127 -3.183,0.229 -1.304,0.103 -2.659,0.179 -4.066,0.232 -1.407,0.05 -2.787,0.088 -4.142,0.114 -1.354,0.026 -2.467,-0.012 -3.337,-0.114 -0.101,-0.818 -0.037,-1.318 0.192,-1.497 0.23,-0.18 0.551,-0.397 0.959,-0.651 2.405,-0.052 4.564,-0.116 6.481,-0.192 1.919,-0.077 3.108,-0.116 3.569,-0.116 0.203,-1.584 0.383,-3.081 0.537,-4.487 0.153,-1.408 0.306,-2.827 0.46,-4.258 0.153,-1.432 0.306,-2.901 0.46,-4.41 0.154,-1.51 0.357,-3.133 0.613,-4.872 -0.767,-0.257 -1.471,-0.46 -2.109,-0.614 -0.64,-0.152 -1.036,-0.332 -1.189,-0.537 0.664,-0.817 1.176,-1.419 1.534,-1.802 0.358,-0.383 0.691,-0.729 0.997,-1.036 0.308,-0.307 0.626,-0.652 0.959,-1.035 0.333,-0.383 0.679,-0.769 0.679,-0.769 0,0 1.52,-10.112 2.006,-13.844 0.485,-3.734 0.83,-7.288 1.035,-10.664 0.358,0.053 0.895,-0.024 1.611,-0.229 0.716,-0.204 1.458,-0.155 2.225,0.152 -0.153,0.461 -0.334,1.228 -0.537,2.303 -0.205,1.073 -0.41,2.3 -0.613,3.682 -0.205,1.38 -0.423,2.838 -0.652,4.372 -0.23,1.534 -0.449,3.017 -0.653,4.448 -0.204,1.433 -0.396,2.724 -0.574,3.875 -0.18,1.15 -0.476,2.818 -0.476,2.818 0,0 1.1,-0.838 1.665,-1.245 0.51,-0.36 1.123,-0.781 1.84,-1.267 0.716,-0.486 1.508,-1.061 2.378,-1.726 2.096,-1.638 4.001,-2.979 5.715,-4.026 1.713,-1.05 3.26,-1.892 4.641,-2.531 1.382,-0.641 2.583,-1.14 3.605,-1.498 1.023,-0.358 2.002,-0.674 2.686,-0.843 0.423,-0.105 0.932,-0.191 1.726,-0.268 0.626,-0.062 1.243,-0.091 1.853,-0.104 0.048,-0.354 0.106,-0.688 0.18,-0.982 0.051,-0.259 0.152,-0.563 0.307,-0.92 0.153,-0.36 0.395,-0.755 0.729,-1.191 0.331,-0.434 0.804,-0.856 1.419,-1.265 0.614,-0.409 3.161,-1.523 5.715,-1.151 0.957,0.14 1.813,0.563 2.608,1.074 0.791,0.511 1.524,1.136 2.262,1.804 0.971,0.877 3.452,3.489 3.913,3.95 0.46,0.46 0.829,0.855 1.112,1.189 0.272,0.321 0.483,0.618 0.636,0.893 0.542,-2.186 1.589,-4.353 3.147,-6.482 2.229,-3.05 6.482,-6.687 14.084,-6.687 1.743,0 3.605,0.195 5.537,0.581 3.166,0.633 9.129,3.589 11.408,10.649 1.483,4.609 0.013,13.938 -3.525,17.165 C 3.609,2.071 1.851,2.888 0,2.888 c -1.033,0 -1.937,-0.261 -2.725,-0.531 -0.137,14.758 4.611,26.705 14.153,35.518"
           style="fill:#2b2b2a;fill-opacity:1;fill-rule:nonzero;stroke:none"
           id="path34"
           inkscape:connector-curvature="0" />
      </g>
      <g
         id="g36"
         transform="matrix(1.25,0,0,-1.25,192.03783,358.64069)">
        <path
           d="m 0,0 c -0.493,0 -0.979,0.232 -1.282,0.667 -2.683,3.845 -3.655,7.561 -2.886,11.046 1.099,4.998 5.401,7.557 5.585,7.664 0.745,0.434 1.7,0.183 2.135,-0.562 0.433,-0.744 0.184,-1.698 -0.558,-2.133 -0.06,-0.037 -3.335,-2.035 -4.12,-5.67 C -1.685,8.42 -0.876,5.542 1.279,2.454 1.771,1.748 1.599,0.774 0.892,0.281 0.62,0.09 0.308,0 0,0"
           style="fill:#ffffff;fill-opacity:1;fill-rule:nonzero;stroke:none"
           id="path38"
           inkscape:connector-curvature="0" />
      </g>
    </g>
  </g>
</svg>
